<svg width="512" height="512" viewBox="0 0 512 512" fill="none" xmlns="http://www.w3.org/2000/svg" xmlns:xlink="http://www.w3.org/1999/xlink" class=""><rect id="r4" width="512" height="512" x="0" y="0" rx="128" fill="url(#r5)" stroke="#FFFFFF" stroke-width="0" stroke-opacity="100%" paint-order="stroke"></rect><clipPath id="clip"><use xlink:href="#r4"></use></clipPath><defs><linearGradient id="r5" gradientUnits="userSpaceOnUse" gradientTransform="rotate(90)" style="transform-origin: center center 0px;"><stop stop-color="#1d4ed8"></stop><stop offset="1" stop-color="#3b82f6"></stop></linearGradient><radialGradient id="r6" cx="0" cy="0" r="1" gradientUnits="userSpaceOnUse" gradientTransform="translate(256) rotate(90) scale(512)"><stop stop-color="white"></stop><stop offset="1" stop-color="white" stop-opacity="0"></stop></radialGradient></defs><svg viewBox="0 0 16 16" fill="none" xmlns="http://www.w3.org/2000/svg" width="400" height="400" x="56" y="56" style="color: rgb(255, 255, 255);" alignment-baseline="middle"><path d="M13.25 12.25v-8.5a2 2 0 0 0-2-2h-6.5a2 2 0 0 0-2 2v8.5a2 2 0 0 0 2 2h6.5a2 2 0 0 0 2-2Z" stroke="currentColor" stroke-width="1.5" stroke-linecap="round" stroke-linejoin="round"></path><path d="M4.75 6.5a.5.5 0 0 1 .5-.5h.5a.5.5 0 0 1 .5.5V7a.5.5 0 0 1-.5.5h-.5a.5.5 0 0 1-.5-.5v-.5ZM4.75 9a.5.5 0 0 1 .5-.5h.5a.5.5 0 0 1 .5.5v.5a.5.5 0 0 1-.5.5h-.5a.5.5 0 0 1-.5-.5V9ZM4.75 11.5a.5.5 0 0 1 .5-.5h.5a.5.5 0 0 1 .5.5v.5a.5.5 0 0 1-.5.5h-.5a.5.5 0 0 1-.5-.5v-.5ZM7.25 6.5a.5.5 0 0 1 .5-.5h.5a.5.5 0 0 1 .5.5V7a.5.5 0 0 1-.5.5h-.5a.5.5 0 0 1-.5-.5v-.5ZM7.25 9a.5.5 0 0 1 .5-.5h.5a.5.5 0 0 1 .5.5v.5a.5.5 0 0 1-.5.5h-.5a.5.5 0 0 1-.5-.5V9ZM7.25 11.5a.5.5 0 0 1 .5-.5h.5a.5.5 0 0 1 .5.5v.5a.5.5 0 0 1-.5.5h-.5a.5.5 0 0 1-.5-.5v-.5ZM9.75 6.5a.5.5 0 0 1 .5-.5h.5a.5.5 0 0 1 .5.5V7a.5.5 0 0 1-.5.5h-.5a.5.5 0 0 1-.5-.5v-.5ZM9.75 9a.5.5 0 0 1 .5-.5h.5a.5.5 0 0 1 .5.5v3a.5.5 0 0 1-.5.5h-.5a.5.5 0 0 1-.5-.5V9Z" fill="currentColor"></path></svg></svg>